@startuml

   /'
     This file contains PlantUML source code to generate a UML diagram 
     that defines a state machine of a revision within the Software 
     Management YANG data model.

     Comments or questions about this Broadband Forum PlantUML file
     should be directed to <mailto:help@broadband-forum.org>.

     Editor:      Nick Hancock, ADTRAN

     Editor:      Ludwig Pauwels, Nokia

     PS Leader:   Joey Boyd, ADTRAN

     WA Director: Joey Boyd, ADTRAN

     WA Director: Sven Ooghe, Nokia";

     Copyright (c) 2022, Broadband Forum

     Redistribution and use in source and binary forms, with or
     without modification, are permitted provided that the following
     conditions are met:

     1. Redistributions of source code must retain the above copyright
        notice, this list of conditions and the following disclaimer.

     2. Redistributions in binary form must reproduce the above
        copyright notice, this list of conditions and the following
        disclaimer in the documentation and/or other materials
        provided with the distribution.

     3. Neither the name of the copyright holder nor the names of its
        contributors may be used to endorse or promote products
        derived from this software without specific prior written
        permission.

     THIS SOFTWARE IS PROVIDED BY THE COPYRIGHT HOLDERS AND
     CONTRIBUTORS \"AS IS\" AND ANY EXPRESS OR IMPLIED WARRANTIES,
     INCLUDING, BUT NOT LIMITED TO, THE IMPLIED WARRANTIES OF
     MERCHANTABILITY AND FITNESS FOR A PARTICULAR PURPOSE ARE
     DISCLAIMED. IN NO EVENT SHALL THE COPYRIGHT HOLDER OR
     CONTRIBUTORS BE LIABLE FOR ANY DIRECT, INDIRECT, INCIDENTAL,
     SPECIAL, EXEMPLARY, OR CONSEQUENTIAL DAMAGES (INCLUDING, BUT
     NOT LIMITED TO, PROCUREMENT OF SUBSTITUTE GOODS OR SERVICES;
     LOSS OF USE, DATA, OR PROFITS; OR BUSINESS INTERRUPTION) HOWEVER
     CAUSED AND ON ANY THEORY OF LIABILITY, WHETHER IN CONTRACT,
     STRICT LIABILITY, OR TORT (INCLUDING NEGLIGENCE OR OTHERWISE)
     ARISING IN ANY WAY OUT OF THE USE OF THIS SOFTWARE, EVEN IF
     ADVISED OF THE POSSIBILITY OF SUCH DAMAGE.

     The above license is used as a license under copyright only.
     Please reference the Forum IPR Policy for patent licensing terms
     <https://www.broadband-forum.org/ipr-policy>.

     Any moral rights which are necessary to exercise under the above
     license grant are also deemed granted under this license.

     This version of this PlantUML source code is part of TR-383a5; 
     see the TR itself for full legal notices.";

     revision 2022-03-01 {
       description
         "Amendment 5.
          * Approval Date:    2022-03-01.
          * Publication Date: 2022-03-01.";
       reference
         "TR-383a5: Common YANG Modules
                    <https://www.broadband-forum.org/technical/download/
                             TR-383_Amendment-5.pdf>";
     }
  '/

  ' Workaround a font size issue...
  skinparam StateFontSize Default
  
  state "state=**in-use**" as InUse

  state "//not-in-use//" as NotInUse {
    [*] --> downloading
    state "state=**not-available**" as NotAvailable
    state "state=**downloading**" as downloading
    downloading : abort-download() / abort download activity
    state "state=**available**" as available
    downloading --> NotAvailable : when: download fails /\n send: download-revision-failed
    downloading --> NotAvailable : when: download aborted /\n send: download-revision-aborted
    downloading --> available : when: download completed\n [validates]
    downloading --> NotAvailable : when: download completed\n [does not validate] /\n send: download-revision-failed
    available --> InUse : activate() /\n is-active:=true,\n send:revision-activated
    available --> InUse : commit() /\n is-committed:=true,\n send:revision-committed
    InUse --> available : when: another revision is committed\n [is-active != true]] / is-committed:=false
    InUse --> available : when: another revision is activated\n [is-committed != true] / is-activated:=false
  }

  [*] --> NotInUse : download()
  NotInUse --> [*] : delete() / delete revision
@enduml
