@startuml

   /'
     This file contains PlantUML source code to generate a UML diagram 
     that defines the relationship between software and hardware 
     components within the Software Management YANG data model.

     Comments or questions about this Broadband Forum PlantUML file
     should be directed to <mailto:help@broadband-forum.org>.

     Editor:      Nick Hancock, ADTRAN

     Editor:      Ludwig Pauwels, Nokia

     PS Leader:   Joey Boyd, ADTRAN

     WA Director: Joey Boyd, ADTRAN

     WA Director: Sven Ooghe, Nokia";

     Copyright (c) 2022, Broadband Forum

     Redistribution and use in source and binary forms, with or
     without modification, are permitted provided that the following
     conditions are met:

     1. Redistributions of source code must retain the above copyright
        notice, this list of conditions and the following disclaimer.

     2. Redistributions in binary form must reproduce the above
        copyright notice, this list of conditions and the following
        disclaimer in the documentation and/or other materials
        provided with the distribution.

     3. Neither the name of the copyright holder nor the names of its
        contributors may be used to endorse or promote products
        derived from this software without specific prior written
        permission.

     THIS SOFTWARE IS PROVIDED BY THE COPYRIGHT HOLDERS AND
     CONTRIBUTORS \"AS IS\" AND ANY EXPRESS OR IMPLIED WARRANTIES,
     INCLUDING, BUT NOT LIMITED TO, THE IMPLIED WARRANTIES OF
     MERCHANTABILITY AND FITNESS FOR A PARTICULAR PURPOSE ARE
     DISCLAIMED. IN NO EVENT SHALL THE COPYRIGHT HOLDER OR
     CONTRIBUTORS BE LIABLE FOR ANY DIRECT, INDIRECT, INCIDENTAL,
     SPECIAL, EXEMPLARY, OR CONSEQUENTIAL DAMAGES (INCLUDING, BUT
     NOT LIMITED TO, PROCUREMENT OF SUBSTITUTE GOODS OR SERVICES;
     LOSS OF USE, DATA, OR PROFITS; OR BUSINESS INTERRUPTION) HOWEVER
     CAUSED AND ON ANY THEORY OF LIABILITY, WHETHER IN CONTRACT,
     STRICT LIABILITY, OR TORT (INCLUDING NEGLIGENCE OR OTHERWISE)
     ARISING IN ANY WAY OUT OF THE USE OF THIS SOFTWARE, EVEN IF
     ADVISED OF THE POSSIBILITY OF SUCH DAMAGE.

     The above license is used as a license under copyright only.
     Please reference the Forum IPR Policy for patent licensing terms
     <https://www.broadband-forum.org/ipr-policy>.

     Any moral rights which are necessary to exercise under the above
     license grant are also deemed granted under this license.

     This version of this PlantUML source code is part of TR-383a5; 
     see the TR itself for full legal notices.";

     revision 2022-03-01 {
       description
         "Amendment 5.
          * Approval Date:    2022-03-01.
          * Publication Date: 2022-03-01.";
       reference
         "TR-383a5: Common YANG Modules
                    <https://www.broadband-forum.org/technical/download/
                             TR-383_Amendment-5.pdf>";
     }
  '/
  
  package "ietf-hardware" {

  class hardware <<container>> 
   class component <<list>>
   hide members
  }


  package "bbf-software-management" {
   class "software" as SoftwareContainer <<container>>
   class "software" as SoftwareList <<list>> {
    <<key>> name : string
    capability[*] : capability
    ...
   }
   class "revision" as RevisionContainer <<container>> {
    maximum-number-of-revisions
   } 
   class "revision" as RevisionList <<list>> {
    <<key>> id : uint8
    ...
   }
  note right of SoftwareContainer : A container that contains all \nsoftware that is manageable \non the component.
  note right of SoftwareList : Software that can \nbe managed on the \ncomponent
  note "Each software has\ndata nodes, actions\nand notifications\nassociated with\ndownloading and \nmanaging revisions\nof the software on \nthe component" as N3
  }

  hardware "1" *-- "0..*" component
  component "1" *-- "0..1" SoftwareContainer : <<augment>>
  SoftwareContainer "1" *-- "1..*" SoftwareList
  SoftwareList "1" *-- "0..1" RevisionContainer
  RevisionContainer "1" *-- "0..*" RevisionList

  RevisionContainer .right. N3
  N3 .left. RevisionList
  
@enduml
